# xmcd
#
# Track frame offsets: 
#        150
#        12316
#        26393
#        36839
#        49988
#        63020
#        73369
#        85775
#        100032
#        112611
#        126162
#        140141
#        154285
#        163454
#        175353
#        189135
#        203221
#        215883
#        228699
#        238563
#
# Disc length: 3361 seconds
#
# Revision: 0
# Processed by: cddbd v1.5.2PL0 Copyright (c) Steve Scherf et al.
# Submitted via: ExactAudioCopy v0.99pb5
#
DISCID=1f0d1f14
DTITLE=Va  - Garage Beat '66 Vol.5 - Readin' Your Will !  FLAC
DYEAR=1900
DGENRE=
TTITLE0=Various Artist - Story Of My Life
TTITLE1=Various Artist - I Can See
TTITLE2=Various Artist - It Happens Everyday
TTITLE3=Various Artist - Bad Day Blues
TTITLE4=Various Artist - Don't Hurt Me
TTITLE5=Various Artist - I'm Going Ahead
TTITLE6=Various Artist - A Taste Of The Same
TTITLE7=Various Artist - Thoughts
TTITLE8=Various Artist - Readin' Your Will
TTITLE9=Various Artist - Face To Face
TTITLE10=Various Artist - Make Me Some Love
TTITLE11=Various Artist - Open Up Your Mind
TTITLE12=Various Artist - Never Existed
TTITLE13=Various Artist - Optical Sound
TTITLE14=Various Artist - Thirteen O'Clock Flight To Psychedelphia
TTITLE15=Various Artist - Flashback
TTITLE16=Various Artist - No More
TTITLE17=Various Artist - Little Girl
TTITLE18=Various Artist - Little Latin Lupe Lu
TTITLE19=Various Artist - Action ! (Speaks Louder Than Words)
EXTD=
EXTT0=
EXTT1=
EXTT2=
EXTT3=
EXTT4=
EXTT5=
EXTT6=
EXTT7=
EXTT8=
EXTT9=
EXTT10=
EXTT11=
EXTT12=
EXTT13=
EXTT14=
EXTT15=
EXTT16=
EXTT17=
EXTT18=
EXTT19=
PLAYORDER=
